<svg width="146" height="44" viewBox="0 0 146 44" fill="none" xmlns="http://www.w3.org/2000/svg">
<path d="M79.6033 21.0095C79.6033 13.5935 73.7353 7.90552 66.4993 7.90552C59.2633 7.90552 53.3953 13.5935 53.3953 21.0095C53.3953 28.4255 59.2633 34.1135 66.4993 34.1135C68.6233 34.1135 70.6393 33.6095 72.4033 32.7455L75.1033 35.5895L79.2433 31.9175L76.7233 29.2535C78.5233 27.0215 79.6033 24.1775 79.6033 21.0095ZM66.4993 28.4975C62.3953 28.4975 59.1553 25.5095 59.1553 21.0095C59.1553 16.5095 62.3953 13.5215 66.4993 13.5215C70.6033 13.5215 73.8433 16.5095 73.8433 21.0095C73.8433 22.5575 73.4473 23.9255 72.7993 25.0775L68.7673 20.7935L64.6273 24.4655L68.2633 28.3175C67.6873 28.4255 67.1113 28.4975 66.4993 28.4975Z" fill="white"/>
<path d="M88.3862 26.7695H101.166C101.31 26.0855 101.382 25.3655 101.382 24.6095C101.382 19.1735 97.4942 15.1055 92.2382 15.1055C86.5502 15.1055 82.6622 19.2455 82.6622 24.6095C82.6622 29.9735 86.4782 34.1135 92.6342 34.1135C96.0542 34.1135 98.7182 32.8535 100.482 30.4055L96.1622 27.9215C95.4422 28.7135 94.1822 29.2895 92.7062 29.2895C90.7262 29.2895 89.0702 28.6415 88.3862 26.7695ZM88.2782 22.7375C88.7822 20.9015 90.1502 19.8935 92.2022 19.8935C93.8222 19.8935 95.4422 20.6495 96.0182 22.7375H88.2782Z" fill="white"/>
<path d="M109.813 26.7695H122.593C122.737 26.0855 122.809 25.3655 122.809 24.6095C122.809 19.1735 118.921 15.1055 113.665 15.1055C107.977 15.1055 104.089 19.2455 104.089 24.6095C104.089 29.9735 107.905 34.1135 114.061 34.1135C117.481 34.1135 120.145 32.8535 121.909 30.4055L117.589 27.9215C116.869 28.7135 115.609 29.2895 114.133 29.2895C112.153 29.2895 110.497 28.6415 109.813 26.7695ZM109.705 22.7375C110.209 20.9015 111.577 19.8935 113.629 19.8935C115.249 19.8935 116.869 20.6495 117.445 22.7375H109.705Z" fill="white"/>
<path d="M137.356 15.1055C134.944 15.1055 133.18 15.9335 131.992 17.3015V8.40952H126.592V33.6095H131.992V31.9175C133.18 33.2855 134.944 34.1135 137.356 34.1135C142.072 34.1135 145.96 29.9735 145.96 24.6095C145.96 19.2455 142.072 15.1055 137.356 15.1055ZM136.276 29.0015C133.792 29.0015 131.992 27.3095 131.992 24.6095C131.992 21.9095 133.792 20.2175 136.276 20.2175C138.76 20.2175 140.56 21.9095 140.56 24.6095C140.56 27.3095 138.76 29.0015 136.276 29.0015Z" fill="white"/>
<path d="M25.0702 0.612305L37.0983 21.4456H13.0421L25.0702 0.612305Z" fill="white"/>
<path d="M12.0702 22.6123L24.0983 43.4456H0.0420532L12.0702 22.6123Z" fill="white"/>
<path d="M37.0838 22.5714L24.9362 43.3353L13.0279 22.4333L37.0838 22.5714Z" fill="white"/>
<path d="M12.0701 21.3886L0.0400184 0.556414L24.0963 0.554117L12.0701 21.3886Z" fill="#52FFE0"/>
</svg>
